<?xml version="1.0" encoding="utf-8"?>
<!-- Generator: Adobe Illustrator 16.0.0, SVG Export Plug-In . SVG Version: 6.00 Build 0)  -->
<!DOCTYPE svg PUBLIC "-//W3C//DTD SVG 1.1//EN" "http://www.w3.org/Graphics/SVG/1.1/DTD/svg11.dtd">
<svg version="1.1" id="Layer_1" xmlns="http://www.w3.org/2000/svg" xmlns:xlink="http://www.w3.org/1999/xlink" x="0px" y="0px"
	 width="385px" height="251px" viewBox="0 0 385 251" enable-background="new 0 0 385 251" xml:space="preserve">
<g>
	<path fill-rule="evenodd" clip-rule="evenodd" fill="#FFFFFF" d="M203.539,29.746c-3.652-3.36-7.668-5.04-12.564-5.04
		c-4.822,0-8.984,1.68-12.49,5.04c-3.581,3.58-5.26,7.67-5.113,12.711c-0.146,4.894,1.533,8.985,5.113,12.563
		c3.506,3.506,7.668,5.186,12.49,5.186c4.896,0,8.912-1.68,12.564-5.186c3.506-3.579,5.187-7.67,5.187-12.563
		C208.726,37.416,207.045,33.325,203.539,29.746L203.539,29.746z"/>
	<path fill-rule="evenodd" clip-rule="evenodd" fill="#FFFFFF" d="M229.324,157.799c-7.89,8.037-11.76,17.603-11.76,28.999
		c0,11.397,3.87,20.967,11.76,28.782c8.037,8.037,17.753,12.199,28.999,12.199c11.179,0,20.749-4.162,28.564-12.199
		c8.036-7.814,12.199-17.385,12.199-28.782c0-11.396-4.163-20.962-12.199-28.999c-7.815-8.036-17.386-11.906-28.564-11.689
		C247.077,145.893,237.361,149.763,229.324,157.799L229.324,157.799z"/>
	<path fill-rule="evenodd" clip-rule="evenodd" fill="#FFFFFF" d="M56.347,191.838c-5.771,5.99-8.766,13.078-8.766,21.548
		c0,8.404,2.995,15.709,8.766,21.48c5.99,5.988,13.076,8.984,21.55,8.984c8.401,0,15.486-2.996,21.257-8.984
		c5.989-5.771,8.985-13.076,8.985-21.48c0-8.471-2.996-15.559-8.985-21.548c-5.771-5.771-12.856-8.764-21.257-8.764
		C69.422,183.075,62.336,186.067,56.347,191.838L56.347,191.838z"/>
	<path fill-rule="evenodd" clip-rule="evenodd" fill="#1452A1" d="M173.955,50.491c0.219-1.825,0.949-3.725,1.898-5.771l-3.213,0.73
		L173.955,50.491L173.955,50.491z"/>
	<path fill-rule="evenodd" clip-rule="evenodd" fill="#1452A1" d="M209.457,45.67c0.438-3.58-0.146-6.793-1.463-9.789l-9.712,2.485
		C202.737,39.828,206.46,42.31,209.457,45.67L209.457,45.67z"/>
	<path fill-rule="evenodd" clip-rule="evenodd" fill="#1452A1" d="M197.697,26.021c-2.997,3.506-5.042,7.159-6.21,10.811
		c3.578-3.142,8.4-4.675,14.243-4.821C203.686,29.161,200.911,27.336,197.697,26.021L197.697,26.021z"/>
	<path fill-rule="evenodd" clip-rule="evenodd" fill="#1452A1" d="M194.337,46.036c2.261,4.676,5.186,8.401,8.985,11.249
		l3.724-4.528C203.903,49.98,199.74,47.715,194.337,46.036L194.337,46.036z"/>
	<path fill-rule="evenodd" clip-rule="evenodd" fill="#1452A1" d="M173.225,38.366c2.264-1.316,4.309-1.899,6.135-2.045
		c-0.875-2.046-1.314-4.165-1.314-6.21C175.634,32.521,174.174,35.151,173.225,38.366L173.225,38.366z"/>
	<path fill-rule="evenodd" clip-rule="evenodd" fill="#1452A1" d="M184.035,33.91c1.315-3.58,2.994-6.574,5.479-9.058
		c-2.485,0.291-4.676,0.803-6.939,2.118C182.575,29.381,183.159,31.645,184.035,33.91L184.035,33.91z"/>
	<path fill-rule="evenodd" clip-rule="evenodd" fill="#1452A1" d="M189.514,45.451c-1.681,4.675-1.534,10.3,0.512,16.437
		l9.129-1.827C194.554,56.262,191.34,51.441,189.514,45.451L189.514,45.451z"/>
	<path fill-rule="evenodd" clip-rule="evenodd" fill="#E72631" d="M209.089,47.35l0.222-0.95c-3.728-3.944-9.424-6.939-16.656-8.621
		l-2.264-0.144c1.68-5.114,4.164-8.985,6.938-11.615l-2.265-0.731l-4.236-0.584c-2.848,2.995-5.258,7.086-7.158,12.344
		c-4.311-0.218-7.817,0.366-10.665,1.827l-0.146,0.438l-0.366,5.405l9.862-1.534c-0.876,4.309-0.876,8.4-0.365,12.345
		c2.484,0.584,3.725,2.483,3.58,5.625l1.459,0.364l2.63,0.366c-2.043-4.603-2.409-10.812-0.949-18.116l2.484,0.365
		c7.087,1.534,12.491,4.09,16.218,7.89L209.089,47.35L209.089,47.35z"/>
	<path fill-rule="evenodd" clip-rule="evenodd" fill="#E72631" d="M206.828,33.689l-0.731-1.168
		c-4.676-0.365-9.353,1.168-14.026,4.528l2.63,0.586C199.523,35.005,203.686,33.689,206.828,33.689L206.828,33.689z"/>
	<path fill-rule="evenodd" clip-rule="evenodd" fill="#E72631" d="M182.721,36.101c-1.242-3.141-1.827-5.771-1.827-8.255
		l-1.898,1.314c0.365,2.85,1.169,5.26,2.046,7.161L182.721,36.101L182.721,36.101z"/>
	<path fill-rule="evenodd" clip-rule="evenodd" fill="#E72631" d="M175.489,53.341l1.314,2.191
		c-0.218-4.09,1.096-7.817,3.726-11.396l-2.044,0.22C176.803,46.913,175.634,49.98,175.489,53.341L175.489,53.341z"/>
	<path fill-rule="evenodd" clip-rule="evenodd" fill="#E72631" d="M202.954,57.577c-3.799-2.775-6.938-6.719-9.35-11.76
		l-2.264-0.585c3.577,6.575,6.941,10.884,10.301,13.295L202.954,57.577L202.954,57.577z"/>
	<path fill-rule="evenodd" clip-rule="evenodd" fill="#1452A1" d="M181.259,55.532c-0.73-3.945-0.73-7.669-0.218-11.176
		c-2.777,4.31-3.871,8.181-3.726,11.76L181.259,55.532L181.259,55.532z"/>
	<path fill-rule="evenodd" clip-rule="evenodd" fill="#DEB939" d="M292.877,27.116l0.363-2.629c-23.738-2.775-50.84,0-81.665,8.839
		l0.874,2.411C242.765,27.336,269.502,24.34,292.877,27.116L292.877,27.116z"/>
	<path fill-rule="evenodd" clip-rule="evenodd" fill="#DEB939" d="M293.972,22.44l0.807-1.826
		c-26.738-2.482-54.788,0.512-84.519,9.351l0.731,1.68C240.354,23.171,268.04,20.03,293.972,22.44L293.972,22.44z"/>
	<path fill-rule="evenodd" clip-rule="evenodd" fill="#DEB939" d="M296.821,16.816l0.731-1.095
		c-27.102-1.9-56.832,2.045-89.337,11.615l1.095,1.459C241.084,19.3,270.234,15.136,296.821,16.816L296.821,16.816z"/>
	<path fill-rule="evenodd" clip-rule="evenodd" fill="#DEB939" d="M358.548,49.76l-0.949,1.827c2.044,3.215,3.724,6.428,4.673,9.57
		c1.462,4.309,2.193,8.985,2.193,14.025l-4.676,1.095c0-3.871-0.364-7.67-1.241-11.177l-3.214-9.204l-1.316,1.899l2.779,7.452
		l1.166,11.249l-5.041,1.461c0.51-6.137-0.217-11.907-1.896-17.167l-1.316,1.096c1.68,5.258,2.265,11.03,1.533,17.604l22.426-4.091
		c0-6.94-1.316-13.148-3.724-18.846c-2.266-5.697-5.262-10.519-9.207-14.829l-0.731,2.775c3.218,3.58,5.771,7.889,7.673,12.566
		c2.044,5.039,3.36,10.663,3.577,16.8l-4.525,0.95c-0.146-5.04-1.1-9.716-2.633-14.025C363.224,57.284,361.322,53.706,358.548,49.76
		L358.548,49.76z"/>
	<polygon fill-rule="evenodd" clip-rule="evenodd" fill="#DEB939" points="296.458,161.962 292.73,162.108 291.564,162.693 
		293.24,164.374 296.458,161.962 	"/>
	<polygon fill-rule="evenodd" clip-rule="evenodd" fill="#DEB939" points="327.868,161.377 322.243,161.377 300.767,178.177 
		301.498,181.758 327.868,161.377 	"/>
	<polygon fill-rule="evenodd" clip-rule="evenodd" fill="#DEB939" points="316.981,161.598 312.526,161.598 298.502,172.41 
		299.597,175.185 316.981,161.598 	"/>
	<polygon fill-rule="evenodd" clip-rule="evenodd" fill="#DEB939" points="295.505,167.516 296.6,169.196 306.316,161.745 
		302.446,161.745 295.505,167.516 	"/>
	<path fill-rule="evenodd" clip-rule="evenodd" fill="#E72631" d="M356.429,38.512l0.222-3.142c0-8.255-2.997-15.34-8.768-21.111
		c-5.843-5.843-12.931-8.839-21.185-8.839c-8.4,0-15.705,3.214-21.694,9.35c8.472-4.675,18.552-3.944,30.533,1.899
		C347.297,22.076,354.385,29.381,356.429,38.512L356.429,38.512z"/>
	<path fill-rule="evenodd" clip-rule="evenodd" fill="#E72631" d="M346.565,57.796c-2.481-7.305-9.569-13.806-21.547-19.43
		c-11.761-5.625-21.26-7.16-28.197-4.456v1.46c0,8.182,2.997,15.341,8.764,21.184c5.771,5.697,12.931,8.545,21.113,8.545
		C334.367,65.1,340.945,62.618,346.565,57.796L346.565,57.796z"/>
	<path fill-rule="evenodd" clip-rule="evenodd" fill="#FFD200" d="M325.019,38.366c11.978,5.624,19.065,12.125,21.547,19.43
		c5.555-5.259,8.985-11.615,9.863-19.284c-2.044-9.131-9.132-16.437-20.892-21.842c-11.981-5.843-22.062-6.575-30.533-1.899
		c-5.04,5.406-7.818,11.833-8.183,19.14C303.759,31.206,313.258,32.741,325.019,38.366L325.019,38.366z"/>
	<polygon fill-rule="evenodd" clip-rule="evenodd" fill="#E72631" points="323.702,17.254 323.924,17.254 323.702,17.036 
		323.556,17.036 323.702,17.254 	"/>
	<path fill-rule="evenodd" clip-rule="evenodd" fill="#E72631" d="M327.137,21.857l0.874-0.367l0.367-0.365v-0.145l0.585-0.951
		l-1.462-1.534c-0.218-0.512-0.803-0.73-1.897-0.73V17.62l0.585-0.365l-0.222-0.438l0.222-0.146h0.146l0.217-0.218h-0.363
		l0.146-0.366h-0.146l-0.222,0.366l-0.363-0.147v0.147l0.217,0.218v0.146l-0.802,0.219v0.219l-0.146,0.147v0.218l0.146-0.218
		l0.217,0.218v0.146l-0.363-0.146l-1.17-0.365l-0.511,0.147l-0.73-0.366l-1.751,0.73l-0.368,1.169l-0.146,0.146l0.368,0.219v0.366
		l0.585,0.511l-0.222,0.95l0.222,0.218l-1.538-0.584l-1.313,2.411h-0.146l-0.949-0.144l0.581-1.315l0.514-0.367l0.364-0.584
		l-0.146-0.146l0.367-0.218v-0.585l-0.585-0.366v-0.364l-0.146,0.219l-0.949,0.145l-0.222,0.731h-0.363l-0.146,0.584v0.584
		l-0.802,1.462l-0.878,0.221l-0.438,0.729l0.585,0.366l-0.368,0.73l-0.728,0.291l-0.221,1.243l0.221,0.218l0.364-0.365v-0.366
		l0.146,0.147l-0.878,1.68l-0.363-0.22l-0.439,0.803h-0.363l-0.146,0.147v0.22l-0.222,0.145v0.219l0.222,0.146h0.728l0.367,0.367
		h0.585l0.511,0.218h0.217v-0.218l0.222-0.146v-0.366h-0.222l-0.217-0.219h0.217l0.368-0.73h-0.368l1.1-2.41l0.802-0.146l0.51-1.022
		l-0.51-0.365l0.146-0.366l1.166,0.366c-1.534,3.579-2.114,5.406-1.534,5.843c0.953,1.095,2.412,1.68,4.46,1.68l2.628-0.585
		l2.629-4.456l1.17,0.146c0,0.366-0.438,0.586-0.948,0.366l-0.585,0.73l0.585,0.95l-1.17,2.045v0.219h-0.146l-0.363-0.219
		l-0.368,0.804h-0.438v0.146h-0.146v0.219l-0.218,0.146v0.22l0.218,0.145h0.731l0.363,0.439h0.731l0.585,0.365h0.222l0.146-0.146
		V32.96l0.217-0.22v-0.219l0.146-0.145h-0.363l-0.368-0.22h0.368l0.363-0.73h-0.363l0.217-0.221V31.06l0.731-1.314l0.218,0.366
		l-0.364,0.219l0.146,0.366l0.585-0.366l0.364-0.803l-0.364-1.096l1.095-0.366l0.364-0.729l-0.731-0.951l0.731-1.534l0.952-0.877
		l-0.367-0.219l0.731-0.729h-0.146l-0.803-0.366v-0.22l-0.146,0.22h-0.953v0.73h-0.363v0.73l-0.731,1.752l-1.166-0.218l1.166-2.628
		l-1.313-0.366l0.51-0.803H327.137L327.137,21.857z M327.501,19.666l0.146-0.73l0.731,1.095v0.146L327.501,19.666L327.501,19.666z
		 M327.137,18.497l-0.221,0.584l-0.218,0.219l-1.095-0.585v-0.583L327.137,18.497L327.137,18.497z M322.971,18.35l0.221-0.584
		l1.096-0.146l0.585,0.365l-0.585,0.512L322.971,18.35L322.971,18.35z M322.824,17.62l-0.581,0.512h-0.585l-0.363,0.218v-0.584
		L322.824,17.62L322.824,17.62z"/>
	<polygon fill-rule="evenodd" clip-rule="evenodd" fill="#E72631" points="322.824,17.254 322.971,17.036 322.971,16.816 
		322.607,17.036 322.824,17.254 	"/>
	<polygon fill-rule="evenodd" clip-rule="evenodd" fill="#E72631" points="322.461,17.036 322.607,17.036 322.607,16.816 
		322.243,16.816 322.461,17.036 	"/>
	<polygon fill-rule="evenodd" clip-rule="evenodd" fill="#E72631" points="322.021,17.036 322.243,17.036 322.021,16.816 
		322.021,17.036 	"/>
	<polygon fill-rule="evenodd" clip-rule="evenodd" fill="#E72631" points="321.658,17.254 321.875,17.036 321.875,16.816 
		321.512,17.036 321.658,17.254 	"/>
	<polygon fill-rule="evenodd" clip-rule="evenodd" fill="#E72631" points="321.148,17.401 321.512,17.254 321.295,17.036 
		321.148,17.254 321.148,17.401 	"/>
	<polygon fill-rule="evenodd" clip-rule="evenodd" fill="#E72631" points="320.195,18.935 320.342,18.935 320.342,18.715 
		320.195,18.715 320.195,18.935 	"/>
	<polygon fill-rule="evenodd" clip-rule="evenodd" fill="#E72631" points="320.195,18.497 320.342,18.497 320.342,18.35 
		320.195,18.35 320.195,18.497 	"/>
	<polygon fill-rule="evenodd" clip-rule="evenodd" fill="#E72631" points="320.342,18.132 320.563,17.984 320.342,17.766 
		320.195,17.984 320.342,18.132 	"/>
	<polygon fill-rule="evenodd" clip-rule="evenodd" fill="#E72631" points="320.563,17.766 320.71,17.62 320.71,17.401 
		320.342,17.62 320.563,17.766 	"/>
	<polygon fill-rule="evenodd" clip-rule="evenodd" fill="#E72631" points="320.71,17.62 321.148,17.401 320.927,17.254 
		320.71,17.401 320.71,17.62 	"/>
	<polygon fill-rule="evenodd" clip-rule="evenodd" fill="#E72631" points="323.191,17.254 323.556,17.254 323.338,17.036 
		323.191,17.036 323.191,17.254 	"/>
	<polygon fill-rule="evenodd" clip-rule="evenodd" fill="#E72631" points="324.141,17.254 324.287,17.254 324.287,17.036 
		324.141,17.036 324.141,17.254 	"/>
	<polygon fill-rule="evenodd" clip-rule="evenodd" fill="#E72631" points="324.509,17.401 324.872,17.254 324.65,17.036 
		324.509,17.254 324.509,17.401 	"/>
	<polygon fill-rule="evenodd" clip-rule="evenodd" fill="#E72631" points="326.188,17.401 325.967,17.62 325.967,17.766 
		326.335,17.62 326.188,17.401 	"/>
	<polygon fill-rule="evenodd" clip-rule="evenodd" fill="#E72631" points="326.335,17.62 326.552,17.766 326.698,17.766 
		326.552,17.62 326.335,17.62 	"/>
	<polygon fill-rule="evenodd" clip-rule="evenodd" fill="#E72631" points="326.698,17.984 327.137,17.766 326.916,17.62 
		326.698,17.766 326.698,17.984 	"/>
	<polygon fill-rule="evenodd" clip-rule="evenodd" fill="#E72631" points="327.137,18.132 327.283,17.984 327.283,17.766 
		327.137,17.984 327.137,18.132 	"/>
	<polygon fill-rule="evenodd" clip-rule="evenodd" fill="#E72631" points="327.501,18.35 327.646,18.132 327.646,17.984 
		327.501,18.132 327.501,18.35 	"/>
	<polygon fill-rule="evenodd" clip-rule="evenodd" fill="#E72631" points="327.868,18.497 328.011,18.497 328.011,18.35 
		327.646,18.35 327.868,18.497 	"/>
	<polygon fill-rule="evenodd" clip-rule="evenodd" fill="#E72631" points="328.011,18.715 328.232,18.715 328.232,18.497 
		328.011,18.497 328.011,18.715 	"/>
	<polygon fill-rule="evenodd" clip-rule="evenodd" fill="#E72631" points="328.378,18.935 328.596,18.935 328.596,18.715 
		328.378,18.715 328.378,18.935 	"/>
	<polygon fill-rule="evenodd" clip-rule="evenodd" fill="#E72631" points="328.596,19.081 328.817,19.3 328.963,19.081 
		328.817,18.935 328.596,19.081 	"/>
	<polygon fill-rule="evenodd" clip-rule="evenodd" fill="#E72631" points="328.817,19.3 328.963,19.445 329.181,19.445 
		329.181,19.3 328.817,19.3 	"/>
	<polygon fill-rule="evenodd" clip-rule="evenodd" fill="#E72631" points="328.963,19.666 328.963,19.811 329.327,19.811 
		329.181,19.666 328.963,19.666 	"/>
	<polygon fill-rule="evenodd" clip-rule="evenodd" fill="#E72631" points="329.327,20.176 329.181,20.03 328.963,20.03 
		328.963,20.176 329.327,20.176 	"/>
	<polygon fill-rule="evenodd" clip-rule="evenodd" fill="#E72631" points="328.963,20.614 329.181,20.614 328.963,20.396 
		328.817,20.396 328.963,20.614 	"/>
	<polygon fill-rule="evenodd" clip-rule="evenodd" fill="#E72631" points="328.817,20.76 328.596,20.76 328.596,20.981 
		328.817,20.981 328.817,20.76 	"/>
	<path fill-rule="evenodd" clip-rule="evenodd" fill="#DEB939" d="M310.262,63.932l-2.261-1.68l-0.368,6.208l-4.822,12.493
		c-1.681,2.995-4.677,5.843-8.839,8.474c-5.403,3.505-10.812,5.185-16.437,4.821c-9.132-0.585-14.389-4.456-16.068-11.761
		c-0.732-3.214-0.586-6.72,0.363-10.519c1.533-6.501,4.894-11.907,10.08-16.436c5.262-4.674,11.25-7.305,17.97-7.817l7.088,0.732
		l-0.368-2.266l-3.723-0.365c-11.029,0-20.014,4.529-26.881,13.66c-5.846,7.45-8.621,15.121-8.621,22.791
		c0,5.405,1.68,9.57,4.822,12.564c2.992,2.995,7.159,4.457,12.346,4.457c9.202,0,17.606-3.945,25.639-11.98
		C307.27,80.222,310.625,72.406,310.262,63.932L310.262,63.932z"/>
	<path fill-rule="evenodd" clip-rule="evenodd" fill="#DEB939" d="M290.611,69.776l0.953-8.985c-0.146-2.776-1.1-4.237-2.633-4.237
		c-3.506,0-6.499,4.383-8.764,13.368c-2.048,9.569-1.68,14.609,1.095,15.559l2.851-1.315
		C286.742,81.537,288.932,76.642,290.611,69.776L290.611,69.776z M281.848,71.091c0.731-3.215,1.68-6.208,2.775-8.619
		c2.629-1.535,3.431,1.46,2.265,9.131c-0.368,3.213-1.095,6.209-2.411,8.985l-2.266,3.725
		C280.168,84.313,279.946,79.857,281.848,71.091L281.848,71.091z"/>
	<path fill-rule="evenodd" clip-rule="evenodd" fill="#E72631" d="M296.968,48.447l-7.088-0.732
		c-6.72,0.512-12.708,3.143-17.97,7.817c-5.187,4.528-8.547,9.934-10.08,16.436c-0.949,3.799-1.096,7.305-0.363,10.519
		c0.584,1.826,1.533,3.506,2.774,5.186c3.214,4.165,8.254,5.844,15.195,5.26c6.503-0.146,12.491-2.775,18.116-7.67
		c3.945-3.506,6.721-7.668,8.764-12.711l1.316-4.091l0.368-6.208c-3.511-2.41-6.356-5.697-8.768-9.715L296.968,48.447
		L296.968,48.447z M290.248,56.262c0.948,1.022,1.316,2.484,1.316,4.529l-0.953,8.985c-1.68,6.865-3.869,11.76-6.498,14.39
		l-2.851,1.315c-0.878,0.146-1.826-0.22-2.411-1.169c-1.68-2.045-1.826-6.719-0.146-13.806c1.68-6.939,3.728-11.616,6.503-13.952
		c1.166-1.023,2.044-1.389,2.628-1.389C288.932,55.166,289.734,55.532,290.248,56.262L290.248,56.262z"/>
	<path fill-rule="evenodd" clip-rule="evenodd" fill="#DEB939" d="M258.47,70.725c5.262-8.253,5.044-14.17-0.728-18.188
		c-3.359-2.046-10.301-2.776-20.745-1.825l-23.595,1.461v4.382c2.043,1.46,2.997,2.703,3.214,4.018l-0.364,3.214l-4.167,15.121
		c-1.316,5.844-4.091,14.024-8.183,24.543l22.571-1.534l1.684-3.578c0.218-2.411,0.803-6.502,1.68-12.346l1.534,9.569
		c0.581,3.727,2.774,5.405,6.938,5.259l18.702-1.533v-2.997l-3.799-8.181l-2.775-9.569C253.213,77.446,255.841,74.816,258.47,70.725
		L258.47,70.725z M255.695,52.902c3.506,1.68,5.039,4.674,4.676,8.619c-0.585,6.354-4.53,11.03-12.199,14.245l6.721,19.211
		l-15.12,1.168c-2.629,0.146-4.31-0.949-5.262-3.579l-0.146-0.95l-3.945-12.491c-2.775,9.495-4.309,15.705-4.309,18.115
		l-17.895,1.316l10.811-37.767c0.949-2.776,0.364-5.26-1.684-7.086l30.466-2.264C250.801,51.441,253.434,52.026,255.695,52.902
		L255.695,52.902z"/>
	<path fill-rule="evenodd" clip-rule="evenodd" fill="#DEB939" d="M233.416,70.725c2.996-0.218,5.262-0.949,6.574-2.265l2.189-3.577
		l0.221-1.096c-0.584-2.849-2.996-3.727-7.305-2.849l-2.628,9.788H233.416L233.416,70.725z M239.041,68.242l-4.895,0.951
		l0.803-2.997C237.361,65.832,238.824,66.562,239.041,68.242L239.041,68.242z"/>
	<path fill-rule="evenodd" clip-rule="evenodd" fill="#E72631" d="M259.055,60.938c0.146-2.191-0.217-4.017-1.533-5.552
		c-1.826-2.483-5.041-3.799-9.713-3.944l-30.466,2.264c1.684,1.68,2.265,3.361,2.048,5.041l-0.364,2.045l-10.448,36.45l16.437-1.096
		l4.309-17.75h0.368l0.727,0.73l3.945,12.491l0.146,0.95c0.952,1.68,3.214,2.41,6.796,2.264l11.906-0.95l-6.357-19.065l0.586-0.219
		c6.21-2.776,9.934-6.721,11.25-11.761v-0.218L259.055,60.938L259.055,60.938z M236.266,59.696c2.559-0.22,4.455,0.364,5.404,1.679
		l0.73,2.411l-0.221,1.096l-2.189,3.577c-1.313,1.316-3.578,2.047-6.574,2.265h-2.044l2.629-10.883L236.266,59.696L236.266,59.696z"
		/>
	<path fill-rule="evenodd" clip-rule="evenodd" fill="#DEB939" d="M185.935,60.573c0.584-1.315,0.366-2.412-0.584-3.506
		c-1.096-1.681-2.996-2.485-5.406-2.265l-16.289,1.095v3.945c0.802,0.364,0.949,1.315,0.802,2.776l-6.939,24.178l-0.95,4.822
		c-0.95,8.034,2.045,12.71,8.985,14.025c5.771,0.95,11.761,0.95,17.97-0.366c6.502-1.315,11.541-3.725,14.9-7.305
		c2.85-3.141,5.115-7.085,6.574-11.979l4.313-15.486c2.411-8.766,3.36-13.807,2.411-14.756c-1.68-2.045-3.945-2.995-6.724-2.848
		l-10.08,0.803l-8.252,31.412l-1.68,3.871c-0.95,1.169-2.41,1.68-4.456,1.68c-1.679,0-2.849-0.511-2.996-1.68L185.935,60.573
		L185.935,60.573z M178.85,56.7c3.725-0.584,5.186,0.73,4.455,3.873l-7.451,25.858c-0.95,2.557-0.22,4.237,1.826,5.187l2.265,0.219
		c4.674-0.366,7.671-2.629,8.766-6.72l8.033-29.951l8.254-0.584h0.368c2.851-0.145,4.677,0.22,5.257,1.534
		c0.585,0.951,0.585,2.411,0,4.31l-6.206,22.207c-1.316,5.04-3.506,8.839-6.72,11.615c-5.626,5.041-13.808,7.45-24.691,7.45
		c-9.496,0-14.171-2.776-14.171-8.4v-2.63l0.949-4.675l6.867-24.105l-0.511-4.311l1.095-0.146L178.85,56.7L178.85,56.7z"/>
	<path fill-rule="evenodd" clip-rule="evenodd" fill="#E72631" d="M182.355,59.842l-0.146-1.827
		c-0.584-0.948-1.68-1.315-3.725-1.315h-0.585l-11.76,0.877l0.511,4.311l-6.867,24.105l-0.949,4.675v2.63
		c0.146,2.045,1.096,3.944,2.995,5.26c2.629,1.898,7.816,2.409,15.851,1.679c7.671-0.366,13.661-2.411,18.337-6.355
		c3.36-2.63,5.625-6.354,6.938-11.25l7.088-24.617l-0.585-2.119c-0.731-0.876-2.044-1.314-4.092-1.314l-8.622,0.584l-8.033,29.951
		c-1.095,4.09-4.091,6.354-8.766,6.72l-2.265-0.219l-2.191-1.46c-0.95-1.314-1.314-2.849-0.803-4.311L182.355,59.842L182.355,59.842
		z"/>
	<path fill-rule="evenodd" clip-rule="evenodd" fill="#DEB939" d="M163.875,54.582l0.218-4.968l-48.43,3.507l-0.221,4.894
		c1.681,0.511,2.265,1.827,2.046,3.506c-0.365,3.214-2.411,10.446-6.136,21.696c-3.944,11.614-6.574,18.48-8.255,20.744l-1.68,2.631
		v4.31l35.136-2.631c5.041-0.584,9.204-3.578,12.711-8.62l3.58-5.404v-4.09l-21.916,2.191l1.68-4.676l15.194-0.73l3.946-12.126
		l-0.585-4.674l-13.661,1.314l1.534-3.581l9.278-0.583c2.995-0.147,5.99-1.461,9.204-4.091
		C159.2,61.887,161.244,58.891,163.875,54.582L163.875,54.582z M161.975,51.441l-3.871,5.479c-2.119,3.14-5.259,4.967-9.789,5.185
		l-11.03,0.512l-3.506,10.883l15.704-1.314l-2.994,9.935l-15.707,0.73l-3.578,11.614l23.229-2.264l-4.163,6.137
		c-2.191,3.214-5.99,5.112-11.03,5.623l-31.557,2.266l1.096-1.535c1.68-2.192,4.455-9.496,8.4-21.623l6.574-22.498
		c0.146-2.412-0.22-4.457-1.314-5.991L161.975,51.441L161.975,51.441z"/>
	<path fill-rule="evenodd" clip-rule="evenodd" fill="#E72631" d="M156.935,55.75l2.848-4.309l-41.344,3.141
		c1.095,1.534,1.46,3.579,1.314,5.991l-6.574,22.498c-3.945,12.127-6.72,19.431-8.4,21.623l29.584-2.046
		c5.04-0.365,8.545-2.191,10.811-5.625l3.361-4.674l-22.792,2.264l3.945-12.856l15.705-0.803l2.557-8.766l-15.705,1.534
		l3.945-12.199l11.394-0.73C151.529,60.573,154.743,58.891,156.935,55.75L156.935,55.75z"/>
	<path fill-rule="evenodd" clip-rule="evenodd" fill="#DEB939" d="M49.261,122.882c-0.584-3.214-2.264-4.675-5.04-4.528
		l-25.421,1.68v4.893c2.776,0.368,4.09,1.463,3.725,3.506c-0.949,4.894-4.091,14.464-9.716,28.636L4.921,175.77v3.724l19.869-1.316
		l6.501-20.746l1.169,11.25l1.462,3.36l12.126-0.731l8.619-10.882l-2.63,6.574c-0.73,2.775-0.146,5.187,1.826,7.305
		c1.388,1.095,3.433,1.68,5.844,1.463l13.66-0.949l4.31-15.852c0.95-4.676,2.995-11.396,6.136-19.796l4.165-12.199
		c1.314-4.677,1.314-7.817,0-9.716c-1.169-1.535-2.85-2.046-4.895-1.899l-15.341,0.95l-16.8,22.644L49.261,122.882L49.261,122.882z
		 M49.627,143.628l19.431-25.421l11.615-0.949c3.141-0.219,5.042,0.146,5.771,1.46l0.366,2.849l-14.902,48.209l-12.564,0.953
		c-2.776,0.217-4.675-0.222-5.26-1.534l-0.583-2.925l6.793-19.792l-15.705,19.943l-10.665,0.728l-2.411-20.524l-8.986,26.88
		L7.551,174.67l17.021-47.115c0.218-2.48-0.584-4.527-2.265-6.207l20.234-1.096c2.412-0.218,4.09,1.096,5.04,3.945L49.627,143.628
		L49.627,143.628z"/>
	<path fill-rule="evenodd" clip-rule="evenodd" fill="#E72631" d="M22.307,121.348c1.681,1.68,2.483,3.727,2.265,6.207
		L8.135,173.358l13.441-0.949l8.619-26.517h1.095l2.41,20.16l9.935-0.731l15.925-20.377l1.096,0.364l-6.939,20.528l0.145,2.482
		c0.657,1.095,2.483,1.458,5.333,1.316l11.543-0.953l14.975-48.284l-0.366-1.68c-0.585-1.096-2.265-1.68-4.676-1.46l-11.615,0.949
		l-20.527,26.88l-2.264-21.108c-0.365-2.411-1.68-3.58-3.726-3.726L22.307,121.348L22.307,121.348z"/>
	<path fill-rule="evenodd" clip-rule="evenodd" fill="#DEB939" d="M218.296,112.947c-0.585-0.948-1.534-1.314-3.068-1.314
		l-12.638,0.949l-0.731,4.457c-0.439,3.944,0.363,6.575,2.189,8.256l-9.495,0.581v4.823c1.68,1.901,2.189,3.582,1.68,5.04
		l-7.305,23.01c-0.364,1.902,0.367,3.728,2.412,5.847c0.95,0.874,2.629,1.241,5.04,1.095l12.708-0.731l10.155-36.672
		c0.146-1.313-0.217-2.044-1.534-2.629c1.68-2.044,2.412-4.675,2.412-7.816C220.122,116.162,219.608,114.482,218.296,112.947
		L218.296,112.947z M213.402,113.532l0.364-0.219c1.68,0,2.85,0.364,3.36,1.314l0.439,3.726l-0.585,4.163l-8.254,0.731
		c-2.412,0-3.87-0.585-4.455-1.534l-0.585-1.462l-0.146-3.213l0.51-2.996l8.4-0.511H213.402L213.402,113.532z M197.329,127.338
		l14.756-0.949c2.048-0.146,3.506,0.364,4.53,1.316l0.146,1.313l-9.207,31.046l-11.685,0.949c-2.486,0.146-4.02-0.363-4.896-1.316
		l-0.146-1.534l7.596-25.422C198.646,130.552,198.282,128.654,197.329,127.338L197.329,127.338z"/>
	<path fill-rule="evenodd" clip-rule="evenodd" fill="#E72631" d="M215.082,127.706c-0.585-0.514-1.463-1.099-2.997-1.316
		l-14.756,0.949c0.953,1.316,1.316,3.214,1.095,5.403l-7.229,24.181l0.146,1.463c0.73,0.949,2.41,1.534,4.894,1.312l10.227-0.727
		l8.768-29.952L215.082,127.706L215.082,127.706z"/>
	<path fill-rule="evenodd" clip-rule="evenodd" fill="#E72631" d="M216.616,118.354c0-1.826-0.217-3.142-0.731-3.726
		c-0.439-0.73-1.17-1.096-2.482-1.096h-0.953l-8.4,0.511l-0.51,2.996l0.146,3.213l0.363,0.146c0.807,1.169,2.265,1.68,4.53,1.68
		l7.305-0.73L216.616,118.354L216.616,118.354z"/>
	<path fill-rule="evenodd" clip-rule="evenodd" fill="#DEB939" d="M110.768,120.837c-0.95-0.951-2.045-1.315-3.359-1.169
		l-12.566,0.73l-0.729,4.676c-0.731,3.797,0,6.354,2.264,8.035l-9.569,0.802l-0.146,4.676c1.68,1.68,2.264,3.506,1.827,5.187
		l-7.232,23.01c-0.584,1.897,0.365,3.724,2.556,5.625c0.95,0.949,2.63,1.458,4.676,1.313l12.709-0.949l10.519-36.668
		c0.146-1.245-0.365-2.047-1.753-2.411c1.753-2.048,2.703-4.676,2.485-7.819L110.768,120.837L110.768,120.837z M96.524,129.603
		l-0.731-4.528l0.731-2.996l8.473-0.73h1.096c1.46-0.146,2.629,0.366,3.141,1.314c0.73,0.951,0.95,2.046,0.73,3.58l-0.876,4.309
		l-8.034,0.731C99.007,131.283,97.474,130.698,96.524,129.603L96.524,129.603z"/>
	<path fill-rule="evenodd" clip-rule="evenodd" fill="#E72631" d="M104.413,134.279l-14.756,0.949
		c0.95,1.312,1.315,3.214,1.096,5.404l-7.304,24.327l0.364,1.462c0.584,0.949,2.119,1.313,4.529,1.095l10.446-0.731l8.621-29.876
		l-0.221-1.316C106.678,134.643,105.728,134.279,104.413,134.279L104.413,134.279z"/>
	<path fill-rule="evenodd" clip-rule="evenodd" fill="#E72631" d="M96.524,122.079l-0.731,2.996l0.367,2.848l0.219,0.51
		c0.73,1.316,2.264,1.755,4.456,1.534l7.159-0.581l0.73-3.143c0.146-1.316,0-2.629-0.584-3.58c-0.585-0.729-1.315-1.095-2.411-1.314
		h-0.73L96.524,122.079L96.524,122.079z"/>
	<path fill-rule="evenodd" clip-rule="evenodd" fill="#DEB939" d="M175.27,115.212l-18.701,1.315v4.455
		c1.314,1.68,1.899,3.727,1.68,5.771l-12.856,39.083v3.36l28.197-1.826c3.581-0.368,6.721-2.048,9.569-4.894l6.355-8.768
		l-0.438-3.724l-17.386,2.044l9.351-30.827c0.949-2.483,0.438-4.163-1.243-5.04L175.27,115.212L175.27,115.212z M178.484,118.354
		l0.144,2.045l-10.079,33.673l18.48-2.043l-3.871,5.625c-2.848,3.143-5.989,4.823-9.35,5.04l-26.005,1.68l13.295-40.981
		c0.146-2.044-0.219-3.725-1.315-5.405l14.756-0.949C176.585,117.039,177.899,117.404,178.484,118.354L178.484,118.354z"/>
	<path fill-rule="evenodd" clip-rule="evenodd" fill="#E72631" d="M174.539,117.039l-14.756,0.949
		c1.097,1.68,1.461,3.36,1.315,5.405l-12.783,39.668l24.544-1.684c4.311-0.364,7.452-2.043,9.496-5.04l2.63-4.087l-17.751,2.044
		l10.081-33.895l-0.145-2.045C176.803,117.842,175.854,117.258,174.539,117.039L174.539,117.039z"/>
	<path fill-rule="evenodd" clip-rule="evenodd" fill="#DEB939" d="M138.089,119.522c-0.951-0.804-2.63-1.168-4.676-0.95
		l-18.554,1.314v4.455c1.314,1.68,1.899,3.582,1.68,5.625l-12.856,39.083l-0.219,3.577l28.415-2.265
		c3.945-0.217,7.159-1.897,9.571-4.894l6.134-8.546l-0.145-3.577l-17.386,1.68l9.351-30.461
		C140.133,122.297,139.768,120.617,138.089,119.522L138.089,119.522z M136.773,121.567l0.146,2.046l-9.862,33.672l18.116-2.044
		l-3.724,5.554c-2.997,2.992-6.21,4.672-9.352,4.894l-25.786,2.043l13.077-40.98c0.145-2.19-0.219-4.09-1.315-5.551l14.756-0.803
		C134.874,120.252,136.189,120.617,136.773,121.567L136.773,121.567z"/>
	<path fill-rule="evenodd" clip-rule="evenodd" fill="#E72631" d="M135.459,121.567c-0.366-0.585-1.315-0.951-2.63-1.169
		l-14.756,0.803c1.096,1.461,1.46,3.361,1.315,5.551l-12.71,39.668l24.47-1.826c4.311-0.439,7.452-2.119,9.569-4.898l2.558-4.309
		l-17.751,2.043l10.082-34.039L135.459,121.567L135.459,121.567z"/>
	<path fill-rule="evenodd" clip-rule="evenodd" fill="#DEB939" d="M105.508,234.867l-2.848,3.139
		c36.377,5.115,77.138-0.879,122.573-18.117l-2.482-2.992C178.85,233.328,139.768,239.322,105.508,234.867L105.508,234.867z"/>
	<path fill-rule="evenodd" clip-rule="evenodd" fill="#DEB939" d="M108.723,229.605l-1.899,2.85
		c33.894,3.871,72.026-1.9,114.248-17.824l-1.827-2.557C178.484,227.193,141.595,233.188,108.723,229.605L108.723,229.605z"/>
	<path fill-rule="evenodd" clip-rule="evenodd" fill="#DEB939" d="M110.987,224.201l-1.023,2.408
		c31.85,3.213,67.716-2.629,107.601-17.385l-0.803-2.045C177.899,221.568,142.543,227.416,110.987,224.201L110.987,224.201z"/>
	<path fill-rule="evenodd" clip-rule="evenodd" fill="#DEB939" d="M112.228,218.939v1.535c30.68,2.773,64.942-2.998,102.854-17.24
		l-0.368-1.316C177.17,215.943,143.129,221.791,112.228,218.939L112.228,218.939z"/>
	<path fill-rule="evenodd" clip-rule="evenodd" fill="#DEB939" d="M40.643,178.983l-2.411,0.146
		c-0.218,6.938,1.315,13.878,4.091,20.599l1.898,4.309l1.096-2.846l-1.096-2.412C41.591,192.788,40.497,186.213,40.643,178.983
		L40.643,178.983z"/>
	<path fill-rule="evenodd" clip-rule="evenodd" fill="#DEB939" d="M43.855,178.762h-1.533c0,5.993,1.168,11.618,3.213,16.875
		l1.096,2.191l1.096-1.681l-0.366-0.873l-0.146-0.222C44.953,190.012,43.855,184.534,43.855,178.762L43.855,178.762z"/>
	<path fill-rule="evenodd" clip-rule="evenodd" fill="#DEB939" d="M47.581,178.545h-1.533c0.218,4.162,1.313,8.475,2.994,12.93
		l0.219,0.217l0.585,1.316l1.096-1.316C48.896,186.798,47.728,182.49,47.581,178.545L47.581,178.545z"/>
	<path fill-rule="evenodd" clip-rule="evenodd" fill="#DEB939" d="M49.991,178.398c0.367,2.997,1.097,6.135,2.412,9.349l0.585,1.317
		l1.094-1.534l-2.775-9.353L49.991,178.398L49.991,178.398z"/>
	<path fill-rule="evenodd" clip-rule="evenodd" fill="#DEB939" d="M249.853,119.886l-0.878-0.218c-3.945,0-7.158,4.673-9.787,13.88
		c-2.775,9.863-2.559,15.12,0.585,16.069l0.581-0.217l2.265-1.095c2.779-2.412,5.19-7.305,6.866-14.61l1.17-6.356
		C251.019,123.613,250.801,121.202,249.853,119.886L249.853,119.886z M244.081,125.875c2.774-1.534,3.577,1.68,1.897,9.5
		l-2.482,9.202l-2.189,3.36c-2.482-0.218-2.629-4.526-0.586-13.294C241.67,131.429,242.765,128.433,244.081,125.875L244.081,125.875
		z"/>
	<path fill-rule="evenodd" clip-rule="evenodd" fill="#DEB939" d="M224.067,126.389c1.68-2.558,3.945-5.188,6.938-7.817
		c5.408-4.674,11.614-7.304,18.337-7.889l6.354,0.219c7.088,0.949,11.396,4.821,12.708,12.125c1.463,7.67-1.312,15.924-8.253,24.545
		l2.047,0.146c5.625-6.941,8.4-13.808,8.4-21.113c0-5.405-1.68-9.714-5.04-13.074c-3.36-3.214-7.669-4.674-13.077-4.674
		c-8.182,0-15.337,2.41-21.476,7.304c-8.839,6.866-13.662,17.533-14.389,31.921c-0.217,2.997,0.51,5.989,2.411,8.839
		c1.68,2.775,3.724,4.676,5.767,5.187c1.317-1.827,2.851-3.36,4.53-4.455c-6.574-1.68-9.934-6.574-9.934-14.61
		c-0.146-1.68,0.217-4.091,0.731-7.305L224.067,126.389L224.067,126.389z"/>
	<path fill-rule="evenodd" clip-rule="evenodd" fill="#E72631" d="M231.004,118.572c-2.992,2.629-5.257,5.259-6.938,7.817
		l-3.945,9.349c-0.514,3.214-0.878,5.625-0.731,7.305c0,3.582,1.17,6.574,3.143,9.207c1.897,2.19,4.526,3.724,7.74,4.672
		c4.823-3.945,10.081-6.791,15.852-8.254l10.887-1.316h1.458c4.091-4.309,6.72-9.273,8.036-15.12
		c1.68-6.72,0.949-12.198-2.265-16.07c-2.554-2.994-6.136-4.894-10.808-5.479h-4.092
		C242.618,111.268,236.412,113.898,231.004,118.572L231.004,118.572z M244.444,119.886c0.731-0.948,1.681-1.314,2.633-1.314
		c0.948-0.219,1.897,0.146,2.407,0.95l0.368,0.364c0.948,1.315,1.166,3.727,0.802,7.452l-1.17,6.356
		c-1.676,7.305-4.087,12.199-6.866,14.61l-2.265,1.095l-0.728,0.217c-0.948,0-1.681-0.363-2.265-1.166
		c-1.898-1.973-1.898-6.866,0.146-14.171C239.188,126.974,241.67,122.079,244.444,119.886L244.444,119.886z"/>
	<path fill-rule="evenodd" clip-rule="evenodd" fill="#DEB939" d="M320.342,106.373c-1.316-0.876-2.992-1.461-4.672-1.461
		l-7.819,0.731l-2.407,4.528l-1.901,14.538l-8.254-13.441c-1.827-2.777-4.31-4.31-7.234-4.31l-17.239,1.313l0.222,4.896
		c2.411,2.775,3.36,5.186,2.997,7.231l-6.796,28.052l2.629,0.803l7.89-33.676c0.146-2.631-0.73-4.529-2.85-5.771l11.613-0.948h0.953
		c2.775-0.22,5.04,0.948,6.353,3.359l10.812,18.698l4.309-23.738l5.408-0.218c4.309-0.366,6.356,1.095,5.988,4.31l-7.669,36.669
		l-0.363,4.459l-6.503,0.581c-4.309,0.368-7.305-0.728-8.839-3.578l-0.368-0.731l-0.363-0.363l-10.08-16.875
		c-1.896,6.649-3.359,14.243-4.309,23.374h-0.953l2.633,1.17l2.266-13.294l5.625,9.717c2.407,3.941,5.768,5.767,10.443,5.767
		l8.622-0.731l3.87-3.724c-0.511-0.949-0.146-4.894,1.17-11.614l6.498-30.607C322.607,109.222,322.021,107.542,320.342,106.373
		L320.342,106.373z"/>
	<path fill-rule="evenodd" clip-rule="evenodd" fill="#E72631" d="M311.356,147.937l7.891-38.131l-0.364-1.753
		c-0.948-0.876-2.411-1.242-4.529-1.095l-5.408,0.218l-4.309,23.738l-0.363,1.316l-11.396-20.015
		c-1.313-2.264-3.36-3.359-6.135-3.359h-0.223l-11.613,0.948c2.119,1.242,2.996,3.141,2.85,5.771l-7.89,33.676
		c3.36,1.095,6.573,2.558,9.57,4.455h1.095l4.677-23.959l11.028,18.556l0.363,0.363c1.534,2.412,4.313,3.36,8.404,3.143l6.206-0.514
		L311.356,147.937L311.356,147.937z"/>
	<path fill-rule="evenodd" clip-rule="evenodd" fill="#DEB939" d="M350.657,104.181l13.076,1.315
		c-2.265,5.406-5.625,8.036-10.08,7.45l-4.091-0.365c-1.68,0.147-3.36,0.732-4.894,1.681c-0.949,0.95-1.317,1.68-1.463,2.63
		l1.095,0.512l6.725,1.314c5.771,0,10.882-5.041,15.12-15.121l-15.852-1.46c-7.088,0.511-13.077,2.995-17.753,7.085
		c-6.938,5.771-10.298,11.615-10.298,17.167c0,6.21,3.36,10.297,10.08,12.199c5.258,1.68,7.891,2.775,7.669,3.36l-7.084-0.364
		c-5.407-2.048-8.984-4.167-10.887-5.847l-3.139,3.945l-3.359,15.341l2.043,0.949l16.291,1.68c8.036-0.368,14.756-2.997,20.527-7.89
		c4.309-3.506,7.084-7.305,8.839-11.543c2.922-7.159,1.241-12.199-5.261-15.338l-11.978-2.996l5.988,1.828
		c2.775,0.949,4.823,2.118,6.135,2.995c3.945,2.482,5.479,6.206,4.309,10.883c-0.727,3.213-2.992,6.502-6.72,10.08
		c-4.672,4.091-10.812,6.578-18.844,7.087l-17.021-1.68l2.775-12.859c5.771,3.728,10.664,5.408,14.609,5.04
		c2.997-0.217,5.187-0.949,6.503-2.043l1.313-2.265c0.585-2.265-2.629-4.526-9.495-6.72c-6.941-2.482-9.717-6.356-8.4-11.833
		c0.51-3.141,2.412-6.136,5.771-9.13C337.581,107.177,343.573,104.693,350.657,104.181L350.657,104.181z"/>
	<path fill-rule="evenodd" clip-rule="evenodd" fill="#E72631" d="M351.974,121.714l-5.988-1.828
		c-2.779-1.314-3.945-2.628-3.729-4.163l1.463-2.41c0.949-0.951,2.629-1.681,5.04-1.826l3.945,0.364
		c2.846,0.73,5.843-0.949,8.764-4.893l0.948-1.681l-11.76-1.096c-7.084,0.512-13.076,2.996-17.749,7.087
		c-3.359,2.994-5.262,5.99-5.771,9.13c-1.316,5.477,1.459,9.351,8.4,11.833c6.866,2.194,10.08,4.455,9.495,6.72l-1.313,2.265
		c-1.316,1.095-3.506,1.826-6.503,2.043c-3.945,0.368-8.839-1.312-14.609-5.04l-2.266,11.396l16.073,1.68
		c7.669-0.585,13.879-2.992,18.919-7.083c3.577-3.214,5.403-6.574,5.771-9.934c0.802-4.313-0.146-7.526-2.997-9.57
		C356.797,123.832,354.749,122.663,351.974,121.714L351.974,121.714z"/>
	<path fill-rule="evenodd" clip-rule="evenodd" fill="#DEB939" d="M108.139,85.482l0.949-2.85
		c-13.074,10.153-24.106,20.381-33.09,30.681h2.046C86.662,103.597,96.742,94.248,108.139,85.482L108.139,85.482z"/>
	<path fill-rule="evenodd" clip-rule="evenodd" fill="#DEB939" d="M110.184,78.908l0.95-2.631
		c-16.291,11.981-29.876,24.326-40.76,37.255h2.264C82.717,101.553,95.283,89.938,110.184,78.908L110.184,78.908z"/>
	<path fill-rule="evenodd" clip-rule="evenodd" fill="#DEB939" d="M112.083,72.917l0.73-2.775
		c-19.431,13.659-35.355,28.197-47.846,43.756l2.411-0.221C79.139,99.289,94.114,85.628,112.083,72.917L112.083,72.917z"/>
	<path fill-rule="evenodd" clip-rule="evenodd" fill="#1452A1" d="M220.122,170.508c-2.048,4.894-2.997,9.349-3.143,13.662
		c7.814-7.815,17.753-13.44,29.876-16.654C236.266,166.053,227.423,167.002,220.122,170.508L220.122,170.508z"/>
	<polygon fill-rule="evenodd" clip-rule="evenodd" fill="#1452A1" points="241.452,157.068 236.997,151.443 228.158,158.602 
		241.452,157.068 	"/>
	<path fill-rule="evenodd" clip-rule="evenodd" fill="#1452A1" d="M269.72,226.246c7.306-2.045,13.44-5.99,18.702-11.762
		c-2.851-4.893-7.527-10.664-14.025-17.238C275.491,207.543,274.033,217.26,269.72,226.246L269.72,226.246z"/>
	<path fill-rule="evenodd" clip-rule="evenodd" fill="#1452A1" d="M299.087,185.119c-9.207-3.143-18.334-4.309-27.323-2.992
		c9.499,4.672,16.805,12.926,22.208,24.469C297.771,200.092,299.45,192.788,299.087,185.119L299.087,185.119z"/>
	<path fill-rule="evenodd" clip-rule="evenodd" fill="#1452A1" d="M241.084,224.42c4.313,1.826,8.4,2.996,11.982,3.359
		c2.996-9.203,3.723-19.65,2.265-31.411C248.39,204.916,243.496,214.264,241.084,224.42L241.084,224.42z"/>
	<path fill-rule="evenodd" clip-rule="evenodd" fill="#1452A1" d="M261.83,156.922c3.359-3.431,7.088-6.21,11.25-8.254
		c-6.574-2.775-13.512-3.582-20.745-2.411C256.789,149.763,260.004,153.345,261.83,156.922L261.83,156.922z"/>
	<path fill-rule="evenodd" clip-rule="evenodd" fill="#1452A1" d="M271.183,164.156c8.254-0.514,15.923,0.581,23.011,3.36
		c-2.775-5.04-6.14-9.131-10.448-12.713C279.072,157.286,274.76,160.428,271.183,164.156L271.183,164.156z"/>
	<path fill-rule="evenodd" clip-rule="evenodd" fill="#1452A1" d="M219.608,201.918c2.558,6.357,6.503,11.836,11.981,16.291
		c4.091-13.072,11.029-23.959,20.891-32.505C241.307,186.798,230.273,192.207,219.608,201.918L219.608,201.918z"/>
	<path fill-rule="evenodd" clip-rule="evenodd" fill="#E72631" d="M238.31,150.711c4.455,4.092,8.546,10.084,12.345,18.117
		c-15.342,3.945-26.587,9.717-33.893,17.824l0.803,8.4l1.68,5.993c7.452-8.622,19.434-14.832,35.865-18.555l1.534,5.625
		c3.143,15.922,2.558,29.145-1.751,39.811l11.25-0.732l2.261-0.584c4.677-10.666,5.408-24.469,2.048-41.27l-1.095-4.894
		c11.906-0.953,21.84,0.217,29.73,3.724l-0.807-5.408c-0.51-2.629-1.459-5.621-2.992-8.764c-8.036-3.578-18.263-4.677-30.462-3.36
		c-3.945-8.839-8.617-15.559-14.025-20.16l-0.948,0.146C245.979,147.352,242.033,148.668,238.31,150.711L238.31,150.711z"/>
	<path fill-rule="evenodd" clip-rule="evenodd" fill="#E72631" d="M272.349,183.221l0.878,5.843
		c9.353,7.668,15.559,14.756,18.555,21.331l1.459-2.482C290.102,198.412,282.943,190.159,272.349,183.221L272.349,183.221z"/>
	<path fill-rule="evenodd" clip-rule="evenodd" fill="#E72631" d="M263.731,160.282l1.826,3.728
		c4.894-5.625,9.716-9.57,14.389-11.76l-4.091-2.486C270.088,153.345,266.143,156.705,263.731,160.282L263.731,160.282z"/>
	<path fill-rule="evenodd" clip-rule="evenodd" fill="#E72631" d="M223.699,164.156l-2.775,4.894
		c8.037-3.945,16.583-4.894,25.568-2.779l-1.68-3.794C237.725,161.16,230.641,161.745,223.699,164.156L223.699,164.156z"/>
	<path fill-rule="evenodd" clip-rule="evenodd" fill="#E72631" d="M236.629,222.154l3.144,1.826
		c2.407-10.227,7.669-19.943,15.337-29.438l-0.727-4.969C243.713,202.721,237.945,213.533,236.629,222.154L236.629,222.154z"/>
	<path fill-rule="evenodd" clip-rule="evenodd" fill="#E72631" d="M77.677,183.221l-7.67,1.166
		c9.569-0.217,18.116,5.187,26.006,16.291c7.45,10.594,9.861,20.381,7.084,29.291c3.214-4.818,4.676-10.227,4.676-16.436
		c0-8.396-2.995-15.484-8.766-21.327C93.164,186.213,86.078,183.221,77.677,183.221L77.677,183.221z"/>
	<path fill-rule="evenodd" clip-rule="evenodd" fill="#1452A1" d="M52.622,196.732c-3.361,5.04-5.041,10.665-5.041,16.801
		c0,8.404,2.995,15.563,8.766,21.48c5.771,5.842,12.931,8.838,21.331,8.838l8.401-1.316c1.095-3.58,0.949-7.891-0.364-12.93
		c-1.316-5.404-3.945-10.666-7.671-15.705c-3.945-5.186-8.255-9.496-12.929-12.709C60.438,198.195,56.347,196.732,52.622,196.732
		L52.622,196.732z"/>
	<path fill-rule="evenodd" clip-rule="evenodd" fill="#DEB939" d="M380.973,106.007c0-3.36-1.68-5.04-5.04-5.04
		s-5.115,1.68-5.115,5.04c0,3.36,1.755,5.041,5.115,5.041S380.973,109.368,380.973,106.007L380.973,106.007z M375.933,101.917
		c2.558,0,3.87,1.314,3.87,4.09c0,2.851-1.313,4.164-3.87,4.164c-2.851,0-4.162-1.313-4.162-4.164
		C371.771,103.231,373.082,101.917,375.933,101.917L375.933,101.917z"/>
	<path fill-rule="evenodd" clip-rule="evenodd" fill="#DEB939" d="M375.933,103.013h-0.585l-1.534,0.218v4.822l0.803,0.805h0.368
		v-2.265h0.51l2.118,2.265l0.364-0.22v-0.147l-0.581-1.314l-0.731-0.949l0.948-1.316
		C377.612,103.597,377.027,103.013,375.933,103.013L375.933,103.013z M374.984,103.962h0.948l0.731,0.95l-0.731,0.731h-0.948
		V103.962L374.984,103.962z"/>
</g>
</svg>
